<?xml version="1.0" standalone="no"?>
<!DOCTYPE svg PUBLIC "-//W3C//DTD SVG 20010904//EN"
 "http://www.w3.org/TR/2001/REC-SVG-20010904/DTD/svg10.dtd">
<svg version="1.0" xmlns="http://www.w3.org/2000/svg"
 width="341.000000pt" height="452.000000pt" viewBox="0 0 341.000000 452.000000"
 preserveAspectRatio="xMidYMid meet">

<g transform="translate(0.000000,452.000000) scale(0.100000,-0.100000)"
fill="#000000" stroke="none">
<path d="M1878 3845 c-3 -3 -29 -12 -57 -20 -28 -7 -75 -29 -104 -48 -68 -46
-157 -139 -157 -166 0 -11 -9 -25 -20 -31 -11 -6 -20 -18 -20 -28 0 -10 -10
-35 -21 -57 -21 -38 -21 -44 -9 -136 15 -111 9 -196 -15 -213 -25 -18 -17 -81
10 -81 14 0 20 -7 21 -25 1 -14 10 -43 21 -65 11 -22 24 -51 28 -65 4 -14 14
-29 21 -35 23 -17 45 -291 29 -370 -12 -63 -16 -75 -26 -75 -6 0 -8 3 -5 8 2
4 -46 -18 -108 -48 -61 -30 -191 -82 -289 -115 -97 -33 -177 -63 -177 -67 0
-5 -10 -8 -22 -8 -14 0 -18 -3 -12 -8 6 -4 20 -23 30 -42 26 -48 26 -241 0
-407 -21 -135 -28 -155 -48 -135 -20 20 -36 15 -122 -42 -45 -30 -93 -59 -107
-65 -21 -7 -28 -19 -36 -61 -8 -39 -7 -54 2 -64 31 -31 47 -79 42 -127 -3 -27
-8 -53 -12 -59 -4 -6 -18 -52 -31 -103 -27 -101 -86 -230 -121 -263 -13 -12
-23 -28 -23 -35 0 -37 -89 -159 -116 -159 -6 0 -16 -17 -23 -38 -18 -53 -47
-90 -61 -76 -13 13 11 75 41 105 18 18 19 25 10 77 -21 121 -10 321 20 372 12
21 14 26 34 100 10 36 26 91 37 122 10 32 18 68 18 81 0 14 7 30 15 37 8 7 15
29 15 49 0 20 7 57 15 84 8 26 11 47 8 47 -3 0 -1 6 5 13 6 7 9 23 5 35 -4 16
2 30 21 49 14 14 26 35 26 46 0 11 5 37 12 59 10 33 9 41 -3 48 -9 6 -15 5
-18 -3 -5 -15 -38 -48 -69 -67 -25 -16 -35 -45 -101 -315 -30 -120 -64 -221
-161 -475 -62 -161 -220 -707 -220 -759 0 -24 16 -71 45 -129 l44 -92 671 0
c378 0 669 4 666 9 -3 4 -19 14 -36 21 -16 7 -28 15 -25 19 2 4 -3 21 -11 37
-15 27 -14 30 10 50 14 12 34 28 45 36 11 8 21 20 23 28 5 20 31 50 44 50 7 0
11 7 10 16 -1 17 64 59 74 46 3 -4 16 -13 30 -20 14 -7 18 -11 9 -8 -12 3 -15
-1 -12 -15 3 -10 0 -19 -6 -19 -24 0 -9 -32 20 -42 27 -9 30 -14 25 -39 -5
-24 0 -33 34 -60 41 -33 52 -59 25 -59 -8 0 -15 -4 -15 -9 0 -5 -20 2 -45 16
-30 16 -45 31 -45 44 0 11 -4 18 -9 14 -6 -3 -18 4 -29 15 -15 16 -24 18 -50
10 -18 -5 -35 -8 -39 -7 -3 1 -7 -9 -8 -22 -1 -17 7 -29 27 -40 15 -9 28 -21
28 -27 0 -6 8 -18 18 -27 15 -13 39 -17 115 -17 96 0 97 0 97 25 0 29 26 45
72 45 30 0 35 -4 43 -33 l10 -32 464 -3 c433 -2 465 -1 477 15 12 17 13 17 19
1 6 -14 19 -18 57 -18 l49 0 -3 143 c-1 78 3 180 9 227 9 59 11 159 7 325 -5
196 -3 264 11 370 12 86 18 203 19 345 1 215 1 215 -26 270 -15 30 -58 86 -95
123 -37 38 -77 88 -88 110 -16 33 -31 47 -70 65 -78 37 -304 161 -363 200
-105 69 -115 106 -87 316 11 84 23 127 49 183 l35 73 46 0 c35 0 52 6 70 25
25 24 34 65 15 65 -5 0 -10 -5 -10 -10 0 -10 -41 -31 -48 -25 -7 7 44 94 56
95 6 0 12 4 12 9 0 5 8 12 19 16 15 4 19 19 24 78 3 39 15 119 27 177 28 132
30 275 6 346 -17 51 -65 102 -161 172 -30 22 -247 107 -340 134 -53 15 -196
24 -207 13z m147 -75 c-27 -12 -43 -12 -25 0 8 5 22 9 30 9 10 0 8 -3 -5 -9z
m-125 -365 c0 -8 -4 -15 -10 -15 -5 0 -10 7 -10 15 0 8 5 15 10 15 6 0 10 -7
10 -15z m258 -2 c16 -16 16 -16 -1 -10 -10 4 -23 7 -28 7 -5 0 -9 5 -9 10 0
15 20 12 38 -7z m-18 -50 c11 -3 9 -8 -9 -18 -30 -16 -51 -9 -51 15 0 18 13
19 60 3z m-420 -36 c0 -7 -5 -18 -12 -25 -7 -7 -13 -30 -14 -52 -2 -34 0 -39
14 -31 11 6 33 3 67 -10 57 -22 146 -26 142 -7 -1 7 8 14 21 16 17 3 21 8 17
23 -8 23 13 26 22 3 4 -11 -1 -22 -13 -31 -19 -14 -19 -15 1 -29 l20 -16 -20
4 c-14 2 -21 -3 -23 -19 -4 -31 22 -21 66 25 33 33 33 34 19 71 -15 35 -14 38
9 60 20 19 26 21 37 9 24 -25 27 -49 10 -79 -14 -23 -15 -32 -5 -38 7 -4 16
-21 21 -38 7 -25 6 -35 -8 -47 -20 -18 -66 -21 -76 -6 -4 7 -13 6 -27 -1 -11
-6 -31 -9 -43 -6 -16 3 -25 -1 -28 -13 -6 -23 10 -50 31 -50 9 -1 -5 -10 -32
-20 -27 -11 -54 -24 -59 -29 -7 -7 -17 -6 -30 1 -15 7 -22 7 -28 -3 -8 -11
-14 -9 -30 10 -11 13 -23 29 -27 35 -12 19 -70 46 -84 41 -8 -3 -21 1 -28 10
-7 8 -18 15 -25 15 -7 0 -11 10 -9 23 6 45 36 142 50 161 8 11 14 30 14 42 0
12 6 24 13 27 17 6 47 -11 47 -26z m169 -11 c24 -13 24 -14 3 -25 -25 -13 -45
-14 -38 -2 3 5 -2 12 -11 15 -15 6 -15 8 -3 16 19 12 20 12 49 -4z m389 -53
c-4 -22 -34 -29 -53 -13 -21 17 -9 30 26 30 24 0 30 -4 27 -17z m-68 -77 c0
-2 -9 -6 -20 -9 -11 -3 -20 -1 -20 4 0 5 9 9 20 9 11 0 20 -2 20 -4z m-10 -47
c0 -9 22 -10 75 -6 71 6 75 6 91 -18 16 -24 14 -48 -9 -93 -8 -18 -17 -22 -34
-17 -13 3 -23 1 -23 -5 0 -40 -76 -45 -134 -9 -25 15 -27 19 -13 25 13 5 17
18 17 54 0 27 3 55 6 64 7 18 24 22 24 5z m-57 -39 c3 -11 4 -20 3 -20 -2 0
-11 9 -21 20 -15 17 -16 20 -3 20 9 0 18 -9 21 -20z m-95 -50 c25 0 30 -18 7
-27 -9 -3 -24 2 -35 12 -10 9 -24 14 -29 10 -6 -3 -11 -1 -11 6 0 7 9 9 23 5
12 -3 32 -6 45 -6z m13 -136 c23 -5 28 -9 18 -15 -21 -13 -62 -11 -53 3 4 7 3
8 -5 4 -14 -9 -51 2 -51 15 0 6 13 8 30 5 17 -3 44 -9 61 -12z m-16 -106 c27
-12 32 -30 13 -45 -17 -13 -166 -9 -179 4 -14 14 -4 32 25 43 31 13 111 12
141 -2z m405 -23 c0 -8 -4 -15 -10 -15 -5 0 -10 7 -10 15 0 8 5 15 10 15 6 0
10 -7 10 -15z m-765 -307 c11 -18 18 -39 17 -45 -2 -7 2 -13 9 -13 20 0 61
-51 54 -68 -3 -8 3 -20 13 -28 24 -17 17 -68 -15 -108 -27 -34 -45 -30 -67 15
-20 41 -21 39 13 39 35 0 49 16 21 23 -11 3 -23 1 -26 -4 -3 -5 -11 -9 -17 -9
-8 0 -7 4 2 9 18 11 19 65 1 85 -7 9 -21 16 -32 16 -10 0 -21 7 -25 15 -6 17
16 105 26 105 4 0 15 -15 26 -32z m-29 -354 c9 -19 21 -31 26 -28 5 3 20 -4
33 -16 13 -12 29 -19 35 -15 14 9 40 -12 51 -42 6 -16 17 -23 34 -23 14 0 25
3 25 8 0 4 27 7 60 8 51 1 60 -1 60 -17 0 -25 16 -27 89 -12 35 7 65 12 66 11
0 -2 9 -15 18 -30 16 -26 16 -30 -2 -76 -19 -48 -67 -133 -102 -183 -15 -21
-20 -52 -24 -140 -3 -63 -10 -118 -14 -122 -10 -10 -87 92 -83 109 2 9 -12 7
-47 -4 l-49 -17 24 -16 c13 -8 44 -36 69 -62 43 -46 44 -47 23 -61 -18 -13
-23 -13 -41 5 -28 25 -37 24 -37 -6 0 -14 -3 -25 -7 -25 -9 0 -79 67 -127 120
l-30 32 14 87 c21 124 18 176 -15 251 -46 109 -114 294 -115 313 0 16 2 16 25
1 14 -9 32 -32 41 -50z m1144 -256 c0 -5 11 -19 25 -32 14 -13 25 -28 25 -34
0 -6 14 -21 30 -34 17 -12 30 -29 30 -38 0 -9 5 -21 12 -28 9 -9 8 -16 -4 -29
-10 -11 -14 -28 -11 -44 10 -53 -92 -307 -115 -285 -3 3 -11 1 -19 -5 -10 -9
-13 -7 -13 10 0 12 -8 33 -17 47 -9 15 -12 29 -7 32 5 4 10 63 12 132 3 168
22 317 39 317 7 0 13 -4 13 -9z m-406 -442 c34 -8 94 -22 135 -32 l73 -17 -6
-45 c-3 -25 -8 -48 -11 -50 -3 -3 -49 5 -103 18 -53 13 -132 28 -174 33 l-78
11 0 32 c0 56 8 64 58 64 25 0 73 -6 106 -14z m-994 -133 c0 -4 -30 -68 -67
-143 -48 -95 -75 -140 -92 -148 -14 -7 -26 -10 -28 -9 -5 6 141 282 156 294
18 14 31 16 31 6z m-158 -12 c31 -11 56 -98 38 -131 -12 -23 -30 -18 -30 9 0
10 -9 43 -19 74 -11 32 -18 57 -16 57 2 0 14 -4 27 -9z m-415 -148 c5 -16 8
-71 7 -123 -1 -102 -21 -171 -112 -390 -21 -52 -46 -130 -55 -173 -8 -43 -18
-81 -21 -84 -17 -17 -146 56 -146 83 0 9 8 28 19 42 10 15 55 97 99 182 65
126 88 183 123 305 53 188 69 218 86 158z m1937 -69 c9 -3 16 -12 16 -19 0 -6
6 -25 14 -41 8 -18 17 -87 21 -184 16 -321 11 -409 -25 -472 -6 -10 -10 -27
-10 -38 0 -11 -7 -20 -16 -20 -9 0 -14 7 -12 17 1 10 -2 25 -7 33 -17 25 -35
156 -52 365 -19 231 -12 311 29 345 27 23 23 21 42 14z m-410 -249 c-4 -8 -10
-12 -15 -9 -14 8 -10 24 6 24 9 0 12 -6 9 -15z m-869 -70 c70 -10 94 -40 95
-117 0 -57 -1 -58 -27 -58 -40 0 -51 11 -55 50 -3 33 -5 35 -42 38 -32 3 -38
1 -32 -13 3 -9 6 -39 6 -66 0 -53 1 -53 62 -64 52 -8 72 -48 63 -121 -5 -44
-12 -57 -36 -75 -36 -25 -140 -79 -155 -79 -6 0 -20 17 -31 38 -17 29 -20 48
-16 90 3 28 9 52 13 52 4 0 22 -3 39 -6 31 -6 32 -9 29 -47 -3 -37 -1 -41 27
-49 48 -13 55 -5 55 61 l0 60 -53 6 c-46 6 -55 11 -75 41 -21 32 -22 42 -16
122 6 73 11 92 33 119 17 21 33 31 46 28 11 -2 43 -7 70 -10z m327 -45 c21 0
25 -24 33 -192 4 -107 3 -127 -9 -122 -8 3 -17 1 -20 -5 -4 -6 -13 -8 -21 -4
-11 4 -13 1 -9 -11 3 -9 1 -16 -5 -16 -6 0 -10 3 -10 8 4 26 -2 82 -10 82 -5
0 -11 -18 -15 -40 -3 -22 -10 -41 -14 -41 -4 -1 -22 -3 -40 -5 -28 -2 -32 1
-27 14 4 10 13 51 21 92 8 41 21 96 30 122 11 35 13 56 6 82 -12 43 -6 49 38
42 19 -3 43 -6 52 -6z m361 -93 c17 -19 27 -43 27 -62 0 -42 -11 -76 -21 -69
-10 6 -79 -16 -79 -26 0 -3 -16 -6 -35 -7 -26 -2 -35 1 -35 13 0 14 -2 14 -15
0 -8 -8 -15 -21 -15 -28 0 -10 -3 -9 -11 2 -8 12 -9 10 -4 -8 8 -29 -19 -62
-50 -62 -17 0 -22 6 -22 25 0 14 5 25 12 25 16 0 25 45 25 123 0 53 4 65 28
90 26 28 29 28 97 22 62 -6 73 -10 98 -38z m-2 -209 c15 -19 18 -40 19 -114 0
-89 0 -90 -33 -122 -31 -30 -38 -32 -76 -26 -39 6 -68 24 -39 24 16 0 41 37
33 49 -2 5 4 11 15 14 12 3 20 14 20 25 0 24 -16 37 -25 22 -8 -12 -75 -14
-75 -1 0 9 -58 25 -75 21 -50 -12 -155 8 -155 29 0 4 15 15 34 25 28 15 39 16
74 7 23 -7 44 -16 47 -21 3 -6 19 -10 36 -10 21 0 29 -5 29 -17 0 -15 2 -16
10 -3 7 12 16 12 49 4 46 -12 51 -10 51 22 0 17 -8 24 -37 31 l-38 9 45 26
c57 33 67 33 91 6z m-1383 -94 c23 -8 54 -14 67 -14 46 0 26 -17 -27 -24 -104
-12 -129 -5 -143 43 -7 22 -5 23 27 16 18 -4 52 -13 76 -21z m1082 -78 c0 -7
-14 -16 -30 -20 -42 -8 -45 -8 -45 7 0 6 16 15 35 18 19 4 36 7 38 8 1 0 2 -5
2 -13z m-714 -81 c3 -7 16 -10 30 -7 28 5 32 -13 11 -43 -16 -21 -39 -12 -35
13 2 11 -5 18 -19 20 -13 2 -23 -1 -23 -7 0 -16 -25 -13 -39 3 -10 11 -8 17 9
29 23 16 59 12 66 -8z"/>
<path d="M1965 1590 c-3 -5 -1 -10 4 -10 6 0 11 5 11 10 0 6 -2 10 -4 10 -3 0
-8 -4 -11 -10z"/>
<path d="M1800 1586 c0 -2 7 -9 15 -16 12 -10 15 -10 15 4 0 9 -7 16 -15 16
-8 0 -15 -2 -15 -4z"/>
<path d="M1993 1563 c-7 -3 -13 -12 -13 -21 0 -15 2 -15 17 1 18 18 16 27 -4
20z"/>
<path d="M2035 552 c-2 -3 0 -13 6 -23 5 -11 9 -25 8 -32 -4 -30 1 -35 29 -28
22 6 28 14 30 43 3 34 2 36 -33 40 -19 2 -38 2 -40 0z"/>
<path d="M1971 534 c0 -11 3 -14 6 -6 3 7 2 16 -1 19 -3 4 -6 -2 -5 -13z"/>
<path d="M1450 2952 c0 -5 6 -16 13 -25 9 -12 16 -14 27 -7 13 9 12 12 -4 25
-22 17 -36 19 -36 7z"/>
<path d="M733 2065 c-34 -15 -44 -35 -18 -35 8 0 15 5 15 11 0 6 6 9 14 6 7
-3 20 3 29 14 20 23 6 24 -40 4z"/>
<path d="M665 2020 c-3 -6 1 -7 10 -4 10 4 14 1 12 -7 -2 -8 -2 -11 0 -6 3 4
12 7 21 7 15 0 15 2 2 10 -19 13 -37 13 -45 0z"/>
<path d="M575 1650 c3 -5 8 -10 11 -10 2 0 4 5 4 10 0 6 -5 10 -11 10 -5 0 -7
-4 -4 -10z"/>
<path d="M1860 31 c0 -6 4 -13 10 -16 6 -3 7 1 4 9 -7 18 -14 21 -14 7z"/>
</g>
</svg>
